<svg width="1202" height="244" viewBox="0 0 1202 244" fill="none" xmlns="http://www.w3.org/2000/svg">
<path d="M0 10C0 4.47715 4.47715 0 10 0H1192C1197.52 0 1202 4.47715 1202 10V76H0V10Z" fill="#0EA5E9"/>
<path d="M541 58C549.837 58 557 50.8366 557 42C557 33.1634 549.837 26 541 26C532.163 26 525 33.1634 525 42C525 50.8366 532.163 58 541 58Z" fill="#E9E9E9"/>
<path d="M732.996 32H571.074C568.824 32 567 33.7909 567 36V52C567 54.2091 568.824 56 571.074 56H732.996C735.246 56 737.07 54.2091 737.07 52V36C737.07 33.7909 735.246 32 732.996 32Z" fill="url(#paint0_linear_180_89)"/>
<path d="M39.1838 51C44.8082 51 49.3676 46.5228 49.3676 41C49.3676 35.4772 44.8082 31 39.1838 31C33.5595 31 29 35.4772 29 41C29 46.5228 33.5595 51 39.1838 51Z" fill="#1BA9FF" fill-opacity="0.3"/>
<path d="M76.864 51C82.4883 51 87.0478 46.5228 87.0478 41C87.0478 35.4772 82.4883 31 76.864 31C71.2396 31 66.6802 35.4772 66.6802 41C66.6802 46.5228 71.2396 51 76.864 51Z" fill="#1BA9FF" fill-opacity="0.3"/>
<path d="M113.526 51C119.15 51 123.71 46.5228 123.71 41C123.71 35.4772 119.15 31 113.526 31C107.901 31 103.342 35.4772 103.342 41C103.342 46.5228 107.901 51 113.526 51Z" fill="#1BA9FF" fill-opacity="0.3"/>
<path fill-rule="evenodd" clip-rule="evenodd" d="M499 76V51C499 64.807 517.576 76 540.49 76H499Z" fill="#F9F9F9" fill-opacity="0.976471"/>
<path fill-rule="evenodd" clip-rule="evenodd" d="M156.49 76V51C156.49 64.807 137.914 76 115 76H156.49Z" fill="#F9F9F9"/>
<path fill-rule="evenodd" clip-rule="evenodd" d="M181.849 13C167.788 13 156.39 24.1929 156.39 38V78H24V206H578V78H499.585V38C499.585 24.1929 488.186 13 474.125 13H181.849Z" fill="#F9F9F9"/>
<path d="M1202 76H0V206H1202V76Z" fill="#F9F9F9" fill-opacity="0.976471"/>
<path d="M1060 111H54C37.4315 111 24 124.431 24 141C24 157.569 37.4315 171 54 171H1060C1076.57 171 1090 157.569 1090 141C1090 124.431 1076.57 111 1060 111Z" fill="white"/>
<path d="M64.2574 138H63.239V136C63.239 133.24 60.9578 131 58.1471 131C55.3363 131 53.0551 133.24 53.0551 136V138H52.0368C50.9165 138 50 138.9 50 140V150C50 151.1 50.9165 152 52.0368 152H64.2574C65.3776 152 66.2941 151.1 66.2941 150V140C66.2941 138.9 65.3776 138 64.2574 138ZM61.304 138H54.9901V136C54.9901 134.29 56.4056 132.9 58.1471 132.9C59.8885 132.9 61.304 134.29 61.304 136V138Z" fill="#CCCCCC"/>
<path d="M473.07 36.2925L471.753 35L466.535 40.1241L461.317 35L460 36.2925L465.219 41.4166L460 46.5408L461.317 47.8333L466.535 42.7091L471.753 47.8333L473.07 46.5408L467.852 41.4166L473.07 36.2925Z" fill="black"/>
<path d="M187.067 25C176.142 25 171 30.0488 171 40.7774C171 51.506 176.142 56.555 187.067 56.555C197.993 56.555 203.135 51.506 203.135 40.7774C203.135 30.0488 197.993 25 187.067 25Z" fill="#E9E9E9"/>
<path d="M222.2 48V36.64H224.744V41.088H229.32V36.64H231.864V48H229.32V43.504H224.744V48H222.2ZM235.114 38.912C234.709 38.912 234.357 38.768 234.058 38.48C233.759 38.1813 233.61 37.824 233.61 37.408C233.61 36.992 233.759 36.64 234.058 36.352C234.357 36.0533 234.709 35.904 235.114 35.904C235.541 35.904 235.898 36.0533 236.186 36.352C236.485 36.64 236.634 36.992 236.634 37.408C236.634 37.824 236.485 38.1813 236.186 38.48C235.898 38.768 235.541 38.912 235.114 38.912ZM233.914 48V40H236.33V48H233.914ZM238.32 48V40H240.736V41.2C240.864 40.8373 241.104 40.5333 241.456 40.288C241.808 40.032 242.203 39.904 242.64 39.904C242.917 39.904 243.179 39.936 243.424 40V42.448C243.051 42.32 242.693 42.256 242.352 42.256C241.84 42.256 241.44 42.4373 241.152 42.8C240.875 43.152 240.736 43.6213 240.736 44.208V48H238.32ZM248.252 48.176C247.015 48.176 245.996 47.7813 245.196 46.992C244.407 46.2027 244.012 45.2 244.012 43.984C244.012 42.7893 244.412 41.7973 245.212 41.008C246.023 40.2187 247.036 39.824 248.252 39.824C248.839 39.824 249.388 39.9253 249.9 40.128C250.423 40.3307 250.881 40.624 251.276 41.008C251.681 41.392 251.996 41.888 252.22 42.496C252.444 43.104 252.545 43.792 252.524 44.56H246.364C246.407 44.9973 246.599 45.3653 246.94 45.664C247.281 45.952 247.761 46.096 248.38 46.096C248.732 46.096 249.052 46.0267 249.34 45.888C249.628 45.7387 249.82 45.5573 249.916 45.344H252.444C252.188 46.1867 251.676 46.8693 250.908 47.392C250.14 47.9147 249.255 48.176 248.252 48.176ZM248.188 41.744C247.729 41.744 247.345 41.8613 247.036 42.096C246.737 42.3307 246.535 42.64 246.428 43.024H249.852C249.735 42.5867 249.516 42.2667 249.196 42.064C248.887 41.8507 248.551 41.744 248.188 41.744ZM254.028 48V36.64H256.572V41.088H261.148V36.64H263.692V48H261.148V43.504H256.572V48H254.028ZM268.576 48.176C267.606 48.176 266.859 47.8507 266.336 47.2C265.814 46.5493 265.552 45.6693 265.552 44.56V40H267.968V44.144C267.968 45.3707 268.379 45.984 269.2 45.984C270.203 45.984 270.704 45.2853 270.704 43.888V40H273.12V48H270.704V47.184C270.246 47.8453 269.536 48.176 268.576 48.176ZM279.693 48.176C279.203 48.176 278.76 48.08 278.365 47.888C277.971 47.6853 277.688 47.456 277.517 47.2V48H275.101V36H277.517V40.8C277.688 40.544 277.971 40.32 278.365 40.128C278.76 39.9253 279.203 39.824 279.693 39.824C280.728 39.824 281.603 40.2347 282.317 41.056C283.043 41.8773 283.405 42.8587 283.405 44C283.405 45.1413 283.043 46.1227 282.317 46.944C281.603 47.7653 280.728 48.176 279.693 48.176ZM277.821 45.424C278.163 45.7973 278.605 45.984 279.149 45.984C279.693 45.984 280.131 45.7973 280.461 45.424C280.803 45.0507 280.973 44.576 280.973 44C280.973 43.424 280.803 42.9493 280.461 42.576C280.131 42.2027 279.693 42.016 279.149 42.016C278.605 42.016 278.163 42.2027 277.821 42.576C277.491 42.9493 277.325 43.424 277.325 44C277.325 44.576 277.491 45.0507 277.821 45.424ZM283.656 48L288.52 36.64H290.824L295.688 48H293.032L292.024 45.6H287.32L286.312 48H283.656ZM289.672 39.984L288.232 43.392H291.096L289.672 39.984ZM296.872 48V36.64H299.416V48H296.872Z" fill="#555555"/>
<path d="M94.4079 148H91.9919V136H94.4079V140.816C94.8666 140.155 95.608 139.824 96.632 139.824C97.6027 139.824 98.3599 140.149 98.9039 140.8C99.4586 141.451 99.7359 142.309 99.7359 143.376V148H97.3199V143.792C97.3199 142.608 96.8879 142.016 96.0239 142.016C95.5439 142.016 95.1546 142.192 94.8559 142.544C94.5572 142.896 94.4079 143.419 94.4079 144.112V148ZM111.731 148.096C110.793 148.096 110.019 147.84 109.411 147.328C108.814 146.805 108.515 146.053 108.515 145.072V142.096H107.251V140H108.515V137.776H110.931V140H113.171V142.096H110.931V144.576C110.931 145.056 111.038 145.403 111.251 145.616C111.465 145.819 111.811 145.92 112.291 145.92C112.686 145.92 112.979 145.877 113.171 145.792V147.936C112.819 148.043 112.339 148.096 111.731 148.096ZM105.603 148.096C104.665 148.096 103.891 147.84 103.283 147.328C102.686 146.805 102.387 146.053 102.387 145.072V142.096H100.787V140H102.387V137.776H104.803V140H106.499V142.096H104.803V144.576C104.803 145.056 104.91 145.403 105.123 145.616C105.337 145.819 105.689 145.92 106.179 145.92C106.563 145.92 106.851 145.877 107.043 145.792V147.936C106.691 148.043 106.211 148.096 105.603 148.096ZM117.111 151.344H114.695V140H117.111V140.8C117.282 140.544 117.564 140.32 117.959 140.128C118.354 139.925 118.796 139.824 119.287 139.824C120.322 139.824 121.196 140.235 121.911 141.056C122.636 141.877 122.999 142.859 122.999 144C122.999 145.141 122.636 146.123 121.911 146.944C121.196 147.765 120.322 148.176 119.287 148.176C118.796 148.176 118.354 148.08 117.959 147.888C117.564 147.685 117.282 147.456 117.111 147.2V151.344ZM117.415 145.424C117.756 145.797 118.199 145.984 118.743 145.984C119.287 145.984 119.724 145.797 120.055 145.424C120.396 145.051 120.567 144.576 120.567 144C120.567 143.424 120.396 142.949 120.055 142.576C119.724 142.203 119.287 142.016 118.743 142.016C118.199 142.016 117.756 142.203 117.415 142.576C117.084 142.949 116.919 143.424 116.919 144C116.919 144.576 117.084 145.051 117.415 145.424ZM127.74 148.176C126.673 148.176 125.793 147.915 125.1 147.392C124.417 146.859 124.054 146.192 124.012 145.392H126.556C126.577 145.701 126.705 145.941 126.94 146.112C127.174 146.272 127.468 146.352 127.82 146.352C128.417 146.352 128.716 146.181 128.716 145.84C128.716 145.669 128.646 145.541 128.508 145.456C128.38 145.36 128.145 145.264 127.804 145.168L126.188 144.752C124.844 144.4 124.172 143.563 124.172 142.24C124.172 141.525 124.47 140.944 125.068 140.496C125.665 140.048 126.481 139.824 127.516 139.824C128.433 139.824 129.196 140.053 129.804 140.512C130.422 140.96 130.764 141.595 130.828 142.416H128.396C128.3 141.925 127.99 141.68 127.468 141.68C126.924 141.68 126.652 141.851 126.652 142.192C126.652 142.491 126.924 142.699 127.468 142.816L128.924 143.2C129.724 143.413 130.3 143.723 130.652 144.128C131.004 144.533 131.18 145.061 131.18 145.712C131.18 146.448 130.86 147.045 130.22 147.504C129.58 147.952 128.753 148.176 127.74 148.176ZM135.32 142.736C134.989 143.067 134.589 143.232 134.12 143.232C133.651 143.232 133.245 143.067 132.904 142.736C132.573 142.395 132.408 141.989 132.408 141.52C132.408 141.051 132.573 140.651 132.904 140.32C133.245 139.979 133.651 139.808 134.12 139.808C134.589 139.808 134.989 139.979 135.32 140.32C135.661 140.651 135.832 141.051 135.832 141.52C135.832 141.989 135.661 142.395 135.32 142.736ZM135.32 147.632C134.989 147.963 134.589 148.128 134.12 148.128C133.651 148.128 133.245 147.963 132.904 147.632C132.573 147.291 132.408 146.885 132.408 146.416C132.408 145.947 132.573 145.547 132.904 145.216C133.245 144.875 133.651 144.704 134.12 144.704C134.589 144.704 134.989 144.875 135.32 145.216C135.661 145.547 135.832 145.947 135.832 146.416C135.832 146.885 135.661 147.291 135.32 147.632ZM136.835 149.76L143.011 136.64H145.187L139.011 149.76H136.835ZM142.163 149.76L148.339 136.64H150.515L144.339 149.76H142.163ZM154.189 148H151.773V136H154.189V140.816C154.648 140.155 155.389 139.824 156.413 139.824C157.384 139.824 158.141 140.149 158.685 140.8C159.24 141.451 159.517 142.309 159.517 143.376V148H157.101V143.792C157.101 142.608 156.669 142.016 155.805 142.016C155.325 142.016 154.936 142.192 154.637 142.544C154.339 142.896 154.189 143.419 154.189 144.112V148ZM162.598 138.912C162.193 138.912 161.841 138.768 161.542 138.48C161.244 138.181 161.094 137.824 161.094 137.408C161.094 136.992 161.244 136.64 161.542 136.352C161.841 136.053 162.193 135.904 162.598 135.904C163.025 135.904 163.382 136.053 163.67 136.352C163.969 136.64 164.118 136.992 164.118 137.408C164.118 137.824 163.969 138.181 163.67 138.48C163.382 138.768 163.025 138.912 162.598 138.912ZM161.398 148V140H163.814V148H161.398ZM165.805 148V140H168.221V141.2C168.349 140.837 168.589 140.533 168.941 140.288C169.293 140.032 169.687 139.904 170.125 139.904C170.402 139.904 170.663 139.936 170.909 140V142.448C170.535 142.32 170.178 142.256 169.837 142.256C169.325 142.256 168.925 142.437 168.637 142.8C168.359 143.152 168.221 143.621 168.221 144.208V148H165.805ZM175.736 148.176C174.499 148.176 173.48 147.781 172.68 146.992C171.891 146.203 171.496 145.2 171.496 143.984C171.496 142.789 171.896 141.797 172.696 141.008C173.507 140.219 174.52 139.824 175.736 139.824C176.323 139.824 176.872 139.925 177.384 140.128C177.907 140.331 178.366 140.624 178.76 141.008C179.166 141.392 179.48 141.888 179.704 142.496C179.928 143.104 180.03 143.792 180.008 144.56H173.848C173.891 144.997 174.083 145.365 174.424 145.664C174.766 145.952 175.246 146.096 175.864 146.096C176.216 146.096 176.536 146.027 176.824 145.888C177.112 145.739 177.304 145.557 177.4 145.344H179.928C179.672 146.187 179.16 146.869 178.392 147.392C177.624 147.915 176.739 148.176 175.736 148.176ZM175.672 141.744C175.214 141.744 174.83 141.861 174.52 142.096C174.222 142.331 174.019 142.64 173.912 143.024H177.336C177.219 142.587 177 142.267 176.68 142.064C176.371 141.851 176.035 141.744 175.672 141.744ZM183.924 148H181.508V136H183.924V140.816C184.382 140.155 185.124 139.824 186.148 139.824C187.118 139.824 187.876 140.149 188.42 140.8C188.974 141.451 189.252 142.309 189.252 143.376V148H186.836V143.792C186.836 142.608 186.404 142.016 185.54 142.016C185.06 142.016 184.67 142.192 184.372 142.544C184.073 142.896 183.924 143.419 183.924 144.112V148ZM194.061 148.176C193.09 148.176 192.343 147.851 191.821 147.2C191.298 146.549 191.037 145.669 191.037 144.56V140H193.453V144.144C193.453 145.371 193.863 145.984 194.685 145.984C195.687 145.984 196.189 145.285 196.189 143.888V140H198.605V148H196.189V147.184C195.73 147.845 195.021 148.176 194.061 148.176ZM205.178 148.176C204.687 148.176 204.244 148.08 203.85 147.888C203.455 147.685 203.172 147.456 203.002 147.2V148H200.586V136H203.002V140.8C203.172 140.544 203.455 140.32 203.85 140.128C204.244 139.925 204.687 139.824 205.178 139.824C206.212 139.824 207.087 140.235 207.802 141.056C208.527 141.877 208.89 142.859 208.89 144C208.89 145.141 208.527 146.123 207.802 146.944C207.087 147.765 206.212 148.176 205.178 148.176ZM203.306 145.424C203.647 145.797 204.09 145.984 204.634 145.984C205.178 145.984 205.615 145.797 205.946 145.424C206.287 145.051 206.458 144.576 206.458 144C206.458 143.424 206.287 142.949 205.946 142.576C205.615 142.203 205.178 142.016 204.634 142.016C204.09 142.016 203.647 142.203 203.306 142.576C202.975 142.949 202.81 143.424 202.81 144C202.81 144.576 202.975 145.051 203.306 145.424ZM213.63 148.176C212.596 148.176 211.716 147.765 210.99 146.944C210.276 146.123 209.918 145.141 209.918 144C209.918 142.859 210.276 141.877 210.99 141.056C211.716 140.235 212.596 139.824 213.63 139.824C214.548 139.824 215.273 140.149 215.806 140.8V140H218.222V148H215.806V147.2C215.273 147.851 214.548 148.176 213.63 148.176ZM212.846 145.424C213.188 145.797 213.63 145.984 214.174 145.984C214.718 145.984 215.156 145.797 215.486 145.424C215.828 145.051 215.998 144.576 215.998 144C215.998 143.424 215.828 142.949 215.486 142.576C215.156 142.203 214.718 142.016 214.174 142.016C213.63 142.016 213.188 142.203 212.846 142.576C212.516 142.949 212.35 143.424 212.35 144C212.35 144.576 212.516 145.051 212.846 145.424ZM221.411 138.912C221.005 138.912 220.653 138.768 220.355 138.48C220.056 138.181 219.907 137.824 219.907 137.408C219.907 136.992 220.056 136.64 220.355 136.352C220.653 136.053 221.005 135.904 221.411 135.904C221.837 135.904 222.195 136.053 222.483 136.352C222.781 136.64 222.931 136.992 222.931 137.408C222.931 137.824 222.781 138.181 222.483 138.48C222.195 138.768 221.837 138.912 221.411 138.912ZM220.211 148V140H222.627V148H220.211ZM227.113 147.632C226.782 147.963 226.382 148.128 225.913 148.128C225.444 148.128 225.038 147.963 224.697 147.632C224.366 147.291 224.201 146.885 224.201 146.416C224.201 145.947 224.366 145.547 224.697 145.216C225.038 144.875 225.444 144.704 225.913 144.704C226.382 144.704 226.782 144.875 227.113 145.216C227.454 145.547 227.625 145.947 227.625 146.416C227.625 146.885 227.454 147.291 227.113 147.632ZM232.923 148.176C231.718 148.176 230.715 147.776 229.915 146.976C229.115 146.165 228.715 145.173 228.715 144C228.715 142.827 229.115 141.84 229.915 141.04C230.715 140.229 231.718 139.824 232.923 139.824C234.022 139.824 234.928 140.128 235.643 140.736C236.358 141.344 236.827 142.139 237.051 143.12H234.555C234.203 142.373 233.659 142 232.923 142C232.4 142 231.974 142.181 231.643 142.544C231.312 142.896 231.147 143.381 231.147 144C231.147 144.619 231.312 145.109 231.643 145.472C231.974 145.824 232.4 146 232.923 146C233.659 146 234.203 145.627 234.555 144.88H237.051C236.827 145.861 236.358 146.656 235.643 147.264C234.928 147.872 234.022 148.176 232.923 148.176ZM245.133 146.976C244.312 147.776 243.32 148.176 242.157 148.176C240.994 148.176 240.002 147.776 239.181 146.976C238.36 146.165 237.949 145.173 237.949 144C237.949 142.827 238.36 141.84 239.181 141.04C240.002 140.229 240.994 139.824 242.157 139.824C243.32 139.824 244.312 140.229 245.133 141.04C245.954 141.84 246.365 142.827 246.365 144C246.365 145.173 245.954 146.165 245.133 146.976ZM240.877 145.392C241.218 145.744 241.645 145.92 242.157 145.92C242.669 145.92 243.09 145.744 243.421 145.392C243.762 145.04 243.933 144.576 243.933 144C243.933 143.424 243.762 142.96 243.421 142.608C243.09 142.256 242.669 142.08 242.157 142.08C241.645 142.08 241.218 142.256 240.877 142.608C240.546 142.96 240.381 143.424 240.381 144C240.381 144.576 240.546 145.04 240.877 145.392ZM257.867 148V143.856C257.867 142.629 257.483 142.016 256.715 142.016C255.798 142.016 255.318 142.683 255.275 144.016V148H252.859V143.856C252.859 142.629 252.475 142.016 251.707 142.016C251.259 142.016 250.907 142.192 250.651 142.544C250.395 142.885 250.267 143.408 250.267 144.112V148H247.851V140H250.267V140.816C250.779 140.155 251.462 139.824 252.315 139.824C253.435 139.824 254.257 140.293 254.779 141.232C255.014 140.773 255.366 140.427 255.835 140.192C256.305 139.947 256.774 139.824 257.243 139.824C258.214 139.824 258.961 140.144 259.483 140.784C260.017 141.424 260.283 142.309 260.283 143.44V148H257.867ZM261.444 149.76L267.62 136.64H269.796L263.62 149.76H261.444ZM273.599 140V148.48C273.599 149.451 273.3 150.197 272.703 150.72C272.105 151.243 271.364 151.504 270.479 151.504C270.052 151.504 269.726 151.483 269.502 151.44V149.392C269.652 149.413 269.785 149.424 269.902 149.424C270.34 149.424 270.66 149.317 270.863 149.104C271.076 148.891 271.183 148.549 271.183 148.08V140H273.599ZM272.383 138.912C271.977 138.912 271.625 138.768 271.327 138.48C271.028 138.181 270.879 137.824 270.879 137.408C270.879 136.992 271.028 136.64 271.327 136.352C271.625 136.053 271.977 135.904 272.383 135.904C272.809 135.904 273.167 136.053 273.455 136.352C273.753 136.64 273.903 136.992 273.903 137.408C273.903 137.824 273.753 138.181 273.455 138.48C273.167 138.768 272.809 138.912 272.383 138.912ZM282.274 146.976C281.452 147.776 280.46 148.176 279.298 148.176C278.135 148.176 277.143 147.776 276.322 146.976C275.5 146.165 275.09 145.173 275.09 144C275.09 142.827 275.5 141.84 276.322 141.04C277.143 140.229 278.135 139.824 279.298 139.824C280.46 139.824 281.452 140.229 282.274 141.04C283.095 141.84 283.506 142.827 283.506 144C283.506 145.173 283.095 146.165 282.274 146.976ZM278.018 145.392C278.359 145.744 278.786 145.92 279.298 145.92C279.81 145.92 280.231 145.744 280.562 145.392C280.903 145.04 281.074 144.576 281.074 144C281.074 143.424 280.903 142.96 280.562 142.608C280.231 142.256 279.81 142.08 279.298 142.08C278.786 142.08 278.359 142.256 278.018 142.608C277.687 142.96 277.522 143.424 277.522 144C277.522 144.576 277.687 145.04 278.018 145.392ZM289.584 148.176C289.093 148.176 288.651 148.08 288.256 147.888C287.861 147.685 287.579 147.456 287.408 147.2V148H284.992V136H287.408V140.8C287.579 140.544 287.861 140.32 288.256 140.128C288.651 139.925 289.093 139.824 289.584 139.824C290.619 139.824 291.493 140.235 292.208 141.056C292.933 141.877 293.296 142.859 293.296 144C293.296 145.141 292.933 146.123 292.208 146.944C291.493 147.765 290.619 148.176 289.584 148.176ZM287.712 145.424C288.053 145.797 288.496 145.984 289.04 145.984C289.584 145.984 290.021 145.797 290.352 145.424C290.693 145.051 290.864 144.576 290.864 144C290.864 143.424 290.693 142.949 290.352 142.576C290.021 142.203 289.584 142.016 289.04 142.016C288.496 142.016 288.053 142.203 287.712 142.576C287.381 142.949 287.216 143.424 287.216 144C287.216 144.576 287.381 145.051 287.712 145.424ZM298.036 148.176C296.97 148.176 296.09 147.915 295.397 147.392C294.714 146.859 294.351 146.192 294.309 145.392H296.853C296.874 145.701 297.002 145.941 297.237 146.112C297.471 146.272 297.765 146.352 298.117 146.352C298.714 146.352 299.013 146.181 299.013 145.84C299.013 145.669 298.943 145.541 298.805 145.456C298.677 145.36 298.442 145.264 298.101 145.168L296.485 144.752C295.141 144.4 294.469 143.563 294.469 142.24C294.469 141.525 294.767 140.944 295.365 140.496C295.962 140.048 296.778 139.824 297.812 139.824C298.73 139.824 299.493 140.053 300.101 140.512C300.719 140.96 301.061 141.595 301.125 142.416H298.693C298.597 141.925 298.287 141.68 297.765 141.68C297.221 141.68 296.949 141.851 296.949 142.192C296.949 142.491 297.221 142.699 297.765 142.816L299.221 143.2C300.021 143.413 300.597 143.723 300.949 144.128C301.301 144.533 301.477 145.061 301.477 145.712C301.477 146.448 301.157 147.045 300.517 147.504C299.877 147.952 299.05 148.176 298.036 148.176ZM302.241 149.76L308.417 136.64H310.593L304.417 149.76H302.241ZM314.474 148.176C313.407 148.176 312.527 147.915 311.834 147.392C311.151 146.859 310.789 146.192 310.746 145.392H313.29C313.311 145.701 313.439 145.941 313.674 146.112C313.909 146.272 314.202 146.352 314.554 146.352C315.151 146.352 315.45 146.181 315.45 145.84C315.45 145.669 315.381 145.541 315.242 145.456C315.114 145.36 314.879 145.264 314.538 145.168L312.922 144.752C311.578 144.4 310.906 143.563 310.906 142.24C310.906 141.525 311.205 140.944 311.802 140.496C312.399 140.048 313.215 139.824 314.25 139.824C315.167 139.824 315.93 140.053 316.538 140.512C317.157 140.96 317.498 141.595 317.562 142.416H315.13C315.034 141.925 314.725 141.68 314.202 141.68C313.658 141.68 313.386 141.851 313.386 142.192C313.386 142.491 313.658 142.699 314.202 142.816L315.658 143.2C316.458 143.413 317.034 143.723 317.386 144.128C317.738 144.533 317.914 145.061 317.914 145.712C317.914 146.448 317.594 147.045 316.954 147.504C316.314 147.952 315.487 148.176 314.474 148.176ZM326.086 146.976C325.265 147.776 324.273 148.176 323.11 148.176C321.948 148.176 320.956 147.776 320.134 146.976C319.313 146.165 318.902 145.173 318.902 144C318.902 142.827 319.313 141.84 320.134 141.04C320.956 140.229 321.948 139.824 323.11 139.824C324.273 139.824 325.265 140.229 326.086 141.04C326.908 141.84 327.318 142.827 327.318 144C327.318 145.173 326.908 146.165 326.086 146.976ZM321.83 145.392C322.172 145.744 322.598 145.92 323.11 145.92C323.622 145.92 324.044 145.744 324.374 145.392C324.716 145.04 324.886 144.576 324.886 144C324.886 143.424 324.716 142.96 324.374 142.608C324.044 142.256 323.622 142.08 323.11 142.08C322.598 142.08 322.172 142.256 321.83 142.608C321.5 142.96 321.334 143.424 321.334 144C321.334 144.576 321.5 145.04 321.83 145.392ZM329.544 148V142.096H327.944V140H329.544V138.928C329.544 137.947 329.843 137.2 330.44 136.688C331.048 136.165 331.822 135.904 332.76 135.904C333.336 135.904 333.816 135.963 334.2 136.08V138.208C334.008 138.123 333.72 138.08 333.336 138.08C332.846 138.08 332.494 138.187 332.28 138.4C332.067 138.603 331.96 138.944 331.96 139.424V140H333.848V142.096H331.96V148H329.544ZM339.048 148.096C338.11 148.096 337.336 147.84 336.728 147.328C336.131 146.805 335.832 146.053 335.832 145.072V142.096H334.6V140H335.832V137.776H338.248V140H340.488V142.096H338.248V144.576C338.248 145.056 338.355 145.403 338.568 145.616C338.782 145.819 339.128 145.92 339.608 145.92C340.003 145.92 340.296 145.877 340.488 145.792V147.936C340.136 148.043 339.656 148.096 339.048 148.096ZM348.872 148L347.496 143.776L346.136 148H343.704L341.064 140H343.656L345.048 144.912L346.568 140H348.424L349.944 144.912L351.336 140H353.928L351.304 148H348.872ZM358.052 148.176C357.017 148.176 356.137 147.765 355.412 146.944C354.697 146.123 354.34 145.141 354.34 144C354.34 142.859 354.697 141.877 355.412 141.056C356.137 140.235 357.017 139.824 358.052 139.824C358.969 139.824 359.695 140.149 360.228 140.8V140H362.644V148H360.228V147.2C359.695 147.851 358.969 148.176 358.052 148.176ZM357.268 145.424C357.609 145.797 358.052 145.984 358.596 145.984C359.14 145.984 359.577 145.797 359.908 145.424C360.249 145.051 360.42 144.576 360.42 144C360.42 143.424 360.249 142.949 359.908 142.576C359.577 142.203 359.14 142.016 358.596 142.016C358.052 142.016 357.609 142.203 357.268 142.576C356.937 142.949 356.772 143.424 356.772 144C356.772 144.576 356.937 145.051 357.268 145.424ZM364.633 148V140H367.049V141.2C367.177 140.837 367.417 140.533 367.769 140.288C368.121 140.032 368.515 139.904 368.953 139.904C369.23 139.904 369.491 139.936 369.737 140V142.448C369.363 142.32 369.006 142.256 368.665 142.256C368.153 142.256 367.753 142.437 367.465 142.8C367.187 143.152 367.049 143.621 367.049 144.208V148H364.633ZM374.565 148.176C373.327 148.176 372.309 147.781 371.509 146.992C370.719 146.203 370.325 145.2 370.325 143.984C370.325 142.789 370.725 141.797 371.525 141.008C372.335 140.219 373.349 139.824 374.565 139.824C375.151 139.824 375.701 139.925 376.213 140.128C376.735 140.331 377.194 140.624 377.589 141.008C377.994 141.392 378.309 141.888 378.533 142.496C378.757 143.104 378.858 143.792 378.837 144.56H372.677C372.719 144.997 372.911 145.365 373.253 145.664C373.594 145.952 374.074 146.096 374.693 146.096C375.045 146.096 375.365 146.027 375.653 145.888C375.941 145.739 376.133 145.557 376.229 145.344H378.757C378.501 146.187 377.989 146.869 377.221 147.392C376.453 147.915 375.567 148.176 374.565 148.176ZM374.501 141.744C374.042 141.744 373.658 141.861 373.349 142.096C373.05 142.331 372.847 142.64 372.741 143.024H376.165C376.047 142.587 375.829 142.267 375.509 142.064C375.199 141.851 374.863 141.744 374.501 141.744ZM380.224 144.672V142.368H384.928V144.672H380.224ZM390.565 148.176C389.327 148.176 388.309 147.781 387.509 146.992C386.719 146.203 386.325 145.2 386.325 143.984C386.325 142.789 386.725 141.797 387.525 141.008C388.335 140.219 389.349 139.824 390.565 139.824C391.151 139.824 391.701 139.925 392.213 140.128C392.735 140.331 393.194 140.624 393.589 141.008C393.994 141.392 394.309 141.888 394.533 142.496C394.757 143.104 394.858 143.792 394.837 144.56H388.677C388.719 144.997 388.911 145.365 389.253 145.664C389.594 145.952 390.074 146.096 390.693 146.096C391.045 146.096 391.365 146.027 391.653 145.888C391.941 145.739 392.133 145.557 392.229 145.344H394.757C394.501 146.187 393.989 146.869 393.221 147.392C392.453 147.915 391.567 148.176 390.565 148.176ZM390.501 141.744C390.042 141.744 389.658 141.861 389.349 142.096C389.05 142.331 388.847 142.64 388.741 143.024H392.165C392.047 142.587 391.829 142.267 391.509 142.064C391.199 141.851 390.863 141.744 390.501 141.744ZM396.336 148V140H398.752V140.816C399.21 140.155 399.952 139.824 400.976 139.824C401.946 139.824 402.704 140.149 403.248 140.8C403.802 141.451 404.08 142.309 404.08 143.376V148H401.664V143.792C401.664 142.608 401.232 142.016 400.368 142.016C399.888 142.016 399.498 142.192 399.2 142.544C398.901 142.896 398.752 143.419 398.752 144.112V148H396.336ZM409.737 151.504C408.617 151.504 407.699 151.211 406.985 150.624C406.281 150.048 405.897 149.317 405.833 148.432H408.185C408.43 149.147 408.969 149.504 409.801 149.504C410.249 149.504 410.627 149.36 410.937 149.072C411.246 148.795 411.401 148.389 411.401 147.856V146.912C411.209 147.2 410.915 147.435 410.521 147.616C410.137 147.797 409.705 147.888 409.225 147.888C408.201 147.888 407.321 147.499 406.585 146.72C405.849 145.931 405.481 144.976 405.481 143.856C405.481 142.736 405.849 141.787 406.585 141.008C407.321 140.219 408.201 139.824 409.225 139.824C409.705 139.824 410.137 139.915 410.521 140.096C410.915 140.277 411.209 140.512 411.401 140.8V140H413.817V147.504C413.817 148.219 413.699 148.843 413.465 149.376C413.241 149.909 412.931 150.325 412.537 150.624C412.153 150.923 411.726 151.141 411.257 151.28C410.787 151.429 410.281 151.504 409.737 151.504ZM408.457 145.184C408.819 145.525 409.251 145.696 409.753 145.696C410.254 145.696 410.686 145.525 411.049 145.184C411.411 144.843 411.593 144.4 411.593 143.856C411.593 143.312 411.411 142.869 411.049 142.528C410.686 142.187 410.254 142.016 409.753 142.016C409.251 142.016 408.819 142.187 408.457 142.528C408.094 142.869 407.913 143.312 407.913 143.856C407.913 144.4 408.094 144.843 408.457 145.184ZM415.085 149.76L421.261 136.64H423.437L417.261 149.76H415.085ZM426.167 148V139.024H423.703L425.431 136.64H428.583V148H426.167ZM434.853 148.176C433.584 148.176 432.549 147.749 431.749 146.896C430.949 146.043 430.549 144.955 430.549 143.632V140.992C430.549 139.669 430.949 138.581 431.749 137.728C432.549 136.875 433.584 136.448 434.853 136.448C436.112 136.448 437.141 136.875 437.941 137.728C438.741 138.581 439.141 139.669 439.141 140.992V143.632C439.141 144.955 438.741 146.043 437.941 146.896C437.141 147.749 436.112 148.176 434.853 148.176ZM434.853 145.792C435.419 145.792 435.872 145.6 436.213 145.216C436.555 144.832 436.725 144.304 436.725 143.632V140.992C436.725 140.32 436.555 139.792 436.213 139.408C435.872 139.024 435.419 138.832 434.853 138.832C434.277 138.832 433.819 139.024 433.477 139.408C433.136 139.792 432.965 140.32 432.965 140.992V143.632C432.965 144.304 433.136 144.832 433.477 145.216C433.819 145.6 434.277 145.792 434.853 145.792ZM444.978 148.176C443.709 148.176 442.674 147.749 441.874 146.896C441.074 146.043 440.674 144.955 440.674 143.632V140.992C440.674 139.669 441.074 138.581 441.874 137.728C442.674 136.875 443.709 136.448 444.978 136.448C446.237 136.448 447.266 136.875 448.066 137.728C448.866 138.581 449.266 139.669 449.266 140.992V143.632C449.266 144.955 448.866 146.043 448.066 146.896C447.266 147.749 446.237 148.176 444.978 148.176ZM444.978 145.792C445.544 145.792 445.997 145.6 446.338 145.216C446.68 144.832 446.85 144.304 446.85 143.632V140.992C446.85 140.32 446.68 139.792 446.338 139.408C445.997 139.024 445.544 138.832 444.978 138.832C444.402 138.832 443.944 139.024 443.602 139.408C443.261 139.792 443.09 140.32 443.09 140.992V143.632C443.09 144.304 443.261 144.832 443.602 145.216C443.944 145.6 444.402 145.792 444.978 145.792ZM455.103 148.176C453.834 148.176 452.799 147.749 451.999 146.896C451.199 146.043 450.799 144.955 450.799 143.632V140.992C450.799 139.669 451.199 138.581 451.999 137.728C452.799 136.875 453.834 136.448 455.103 136.448C456.362 136.448 457.391 136.875 458.191 137.728C458.991 138.581 459.391 139.669 459.391 140.992V143.632C459.391 144.955 458.991 146.043 458.191 146.896C457.391 147.749 456.362 148.176 455.103 148.176ZM455.103 145.792C455.669 145.792 456.122 145.6 456.463 145.216C456.805 144.832 456.975 144.304 456.975 143.632V140.992C456.975 140.32 456.805 139.792 456.463 139.408C456.122 139.024 455.669 138.832 455.103 138.832C454.527 138.832 454.069 139.024 453.727 139.408C453.386 139.792 453.215 140.32 453.215 140.992V143.632C453.215 144.304 453.386 144.832 453.727 145.216C454.069 145.6 454.527 145.792 455.103 145.792ZM464.748 148.176C463.671 148.176 462.727 147.845 461.916 147.184C461.106 146.512 460.679 145.664 460.636 144.64H463.132C463.218 144.981 463.41 145.259 463.708 145.472C464.007 145.685 464.354 145.792 464.748 145.792C465.25 145.792 465.639 145.648 465.916 145.36C466.194 145.072 466.332 144.693 466.332 144.224C466.332 143.776 466.183 143.403 465.884 143.104C465.586 142.805 465.212 142.656 464.764 142.656C464.348 142.656 463.996 142.768 463.708 142.992C463.42 143.205 463.212 143.488 463.084 143.84L460.988 143.184L462.3 136.64H467.884V138.976H464.156L463.772 140.784C464.146 140.581 464.631 140.48 465.228 140.48C466.295 140.48 467.148 140.843 467.788 141.568C468.428 142.293 468.748 143.237 468.748 144.4C468.748 145.573 468.386 146.496 467.66 147.168C466.946 147.84 465.975 148.176 464.748 148.176ZM476.831 147.056C476.106 147.803 475.135 148.176 473.919 148.176C472.703 148.176 471.732 147.803 471.007 147.056C470.282 146.309 469.919 145.36 469.919 144.208C469.919 143.845 469.978 143.499 470.095 143.168C470.212 142.827 470.34 142.544 470.479 142.32C470.628 142.085 470.89 141.696 471.263 141.152L474.431 136.64H477.407L474.623 140.608C475.487 140.683 476.25 141.045 476.911 141.696C477.583 142.336 477.919 143.179 477.919 144.224C477.919 145.365 477.556 146.309 476.831 147.056ZM473.919 145.856C474.367 145.856 474.74 145.701 475.039 145.392C475.338 145.083 475.487 144.704 475.487 144.256C475.487 143.808 475.338 143.429 475.039 143.12C474.74 142.811 474.367 142.656 473.919 142.656C473.45 142.656 473.071 142.811 472.783 143.12C472.495 143.419 472.351 143.797 472.351 144.256C472.351 144.715 472.495 145.099 472.783 145.408C473.071 145.707 473.45 145.856 473.919 145.856ZM483.267 148.176C482.094 148.176 481.118 147.829 480.339 147.136C479.561 146.443 479.171 145.563 479.171 144.496C479.171 143.291 479.625 142.4 480.531 141.824C479.923 141.248 479.619 140.496 479.619 139.568C479.619 138.661 479.95 137.915 480.611 137.328C481.283 136.741 482.169 136.448 483.267 136.448C484.366 136.448 485.246 136.741 485.907 137.328C486.579 137.915 486.915 138.661 486.915 139.568C486.915 140.485 486.606 141.237 485.987 141.824C486.905 142.411 487.363 143.301 487.363 144.496C487.363 145.563 486.969 146.443 486.179 147.136C485.401 147.829 484.43 148.176 483.267 148.176ZM483.267 145.952C483.747 145.952 484.131 145.803 484.419 145.504C484.718 145.195 484.867 144.837 484.867 144.432C484.867 144.027 484.718 143.675 484.419 143.376C484.131 143.067 483.747 142.912 483.267 142.912C482.777 142.912 482.387 143.067 482.099 143.376C481.811 143.675 481.667 144.027 481.667 144.432C481.667 144.837 481.811 145.195 482.099 145.504C482.387 145.803 482.777 145.952 483.267 145.952ZM482.323 140.672C482.579 140.896 482.894 141.008 483.267 141.008C483.641 141.008 483.95 140.896 484.195 140.672C484.451 140.437 484.579 140.144 484.579 139.792C484.579 139.44 484.451 139.152 484.195 138.928C483.95 138.693 483.641 138.576 483.267 138.576C482.894 138.576 482.579 138.693 482.323 138.928C482.078 139.152 481.955 139.44 481.955 139.792C481.955 140.144 482.078 140.437 482.323 140.672Z" fill="#555555" fill-opacity="0.64"/>
<defs>
<linearGradient id="paint0_linear_180_89" x1="636.759" y1="32" x2="737.07" y2="32" gradientUnits="userSpaceOnUse">
<stop stop-color="#E9E9E9"/>
<stop offset="1" stop-color="#E9E9E9" stop-opacity="0"/>
</linearGradient>
</defs>
</svg>
