                    <svg xmlns="http://www.w3.org/2000/svg" width="694" height="649" viewBox="0 0 694 649" fill="none">
<path d="M-127 0C-65.1667 39.1667 -3.33333 78.3334 65.3333 93.1667C134 108 209.667 98.6667 264.667 132.833C319.667 166.833 354.333 244.333 371.5 312.667C388.667 381 388.5 440 443.167 482C497.833 524 607.333 549.167 656.667 601.167C706 653.167 695.167 732.167 684.167 811.167H-127V0Z" fill="#032E40"/>
<path d="M-127 135.167C-75.5 167.833 -24 200.333 33.3333 212.833C90.5 225.167 153.5 217.5 199.333 245.833C245.333 274.167 274.167 338.833 288.5 395.667C302.833 452.667 302.5 501.833 348.167 536.833C393.667 571.833 484.833 592.833 526 636.167C567.167 679.5 558 745.333 549 811.167H-127V135.167Z" fill="#004662"/>
<path d="M-127 270.333C-85.8333 296.5 -44.5 322.5 1.33333 332.5C47 342.5 97.3333 336.167 134.167 358.833C170.833 381.667 193.833 433.333 205.333 478.833C216.833 524.333 216.667 563.667 253.167 591.667C289.5 619.833 362.5 636.5 395.333 671.167C428.333 705.833 421 758.5 413.833 811.167H-127V270.333Z" fill="#005F86"/>
<path d="M-127 405.5C-96 425.167 -65.1667 444.667 -30.8333 452.167C3.5 459.667 41.3333 455 68.8333 472C96.3333 489 113.667 527.833 122.333 561.833C130.833 596 130.667 625.5 158 646.5C185.333 667.667 240.167 680.167 264.833 706.167C289.5 732.167 284 771.667 278.667 811.167H-127V405.5Z" fill="#007AAC"/>
<path d="M-127 540.833C-106.333 553.833 -85.8333 566.833 -62.8333 571.833C-40 576.833 -14.8333 573.667 3.50002 585C21.8333 596.333 33.5 622.167 39.1667 645C44.8333 667.833 44.8333 687.5 63 701.5C81.3333 715.5 117.833 723.833 134.167 741.167C150.667 758.5 147 784.833 143.333 811.167H-127V540.833Z" fill="#0496D4"/>
</svg>