<svg width="204" height="41" viewBox="0 0 204 41" fill="none" xmlns="http://www.w3.org/2000/svg">
<path d="M184.594 16C187.411 16 189.695 13.7614 189.695 11C189.695 8.23858 187.411 6 184.594 6C181.776 6 179.492 8.23858 179.492 11C179.492 13.7614 181.776 16 184.594 16Z" fill="#0EA5E9"/>
<path d="M198.878 31C201.696 31 203.98 28.7614 203.98 26C203.98 23.2386 201.696 21 198.878 21C196.061 21 193.776 23.2386 193.776 26C193.776 28.7614 196.061 31 198.878 31Z" fill="#0EA5E9"/>
<path d="M198.878 16C201.696 16 203.98 13.7614 203.98 11C203.98 8.23858 201.696 6 198.878 6C196.061 6 193.776 8.23858 193.776 11C193.776 13.7614 196.061 16 198.878 16Z" fill="#0EA5E9"/>
<path d="M184.594 31C187.411 31 189.695 28.7614 189.695 26C189.695 23.2386 187.411 21 184.594 21C181.776 21 179.492 23.2386 179.492 26C179.492 28.7614 181.776 31 184.594 31Z" fill="#0EA5E9"/>
<path d="M3.40996 33V9.57H8.65696V18.744H18.095V9.57H23.342V33H18.095V23.727H8.65696V33H3.40996ZM30.0448 14.256C29.2088 14.256 28.4828 13.959 27.8668 13.365C27.2508 12.749 26.9428 12.012 26.9428 11.154C26.9428 10.296 27.2508 9.57 27.8668 8.976C28.4828 8.36 29.2088 8.052 30.0448 8.052C30.9248 8.052 31.6618 8.36 32.2558 8.976C32.8718 9.57 33.1798 10.296 33.1798 11.154C33.1798 12.012 32.8718 12.749 32.2558 13.365C31.6618 13.959 30.9248 14.256 30.0448 14.256ZM27.5698 33V16.5H32.5528V33H27.5698ZM36.6577 33V16.5H41.6407V18.975C41.9047 18.227 42.3997 17.6 43.1257 17.094C43.8517 16.566 44.6657 16.302 45.5677 16.302C46.1397 16.302 46.6787 16.368 47.1847 16.5V21.549C46.4147 21.285 45.6777 21.153 44.9737 21.153C43.9177 21.153 43.0927 21.527 42.4987 22.275C41.9267 23.001 41.6407 23.969 41.6407 25.179V33H36.6577ZM57.1422 33.363C54.5902 33.363 52.4892 32.549 50.8392 30.921C49.2112 29.293 48.3972 27.225 48.3972 24.717C48.3972 22.253 49.2222 20.207 50.8722 18.579C52.5442 16.951 54.6342 16.137 57.1422 16.137C58.3522 16.137 59.4852 16.346 60.5412 16.764C61.6192 17.182 62.5652 17.787 63.3792 18.579C64.2152 19.371 64.8642 20.394 65.3262 21.648C65.7882 22.902 65.9972 24.321 65.9532 25.905H53.2482C53.3362 26.807 53.7322 27.566 54.4362 28.182C55.1402 28.776 56.1302 29.073 57.4062 29.073C58.1322 29.073 58.7922 28.93 59.3862 28.644C59.9802 28.336 60.3762 27.962 60.5742 27.522H65.7882C65.2602 29.26 64.2042 30.668 62.6202 31.746C61.0362 32.824 59.2102 33.363 57.1422 33.363ZM57.0102 20.097C56.0642 20.097 55.2722 20.339 54.6342 20.823C54.0182 21.307 53.6002 21.945 53.3802 22.737H60.4422C60.2002 21.835 59.7492 21.175 59.0892 20.757C58.4512 20.317 57.7582 20.097 57.0102 20.097ZM69.0555 33V9.57H74.3025V18.744H83.7405V9.57H88.9875V33H83.7405V23.727H74.3025V33H69.0555ZM99.061 33.363C97.059 33.363 95.519 32.692 94.441 31.35C93.363 30.008 92.824 28.193 92.824 25.905V16.5H97.807V25.047C97.807 27.577 98.654 28.842 100.348 28.842C102.416 28.842 103.45 27.401 103.45 24.519V16.5H108.433V33H103.45V31.317C102.504 32.681 101.041 33.363 99.061 33.363ZM121.99 33.363C120.978 33.363 120.065 33.165 119.251 32.769C118.437 32.351 117.854 31.878 117.502 31.35V33H112.519V8.25H117.502V18.15C117.854 17.622 118.437 17.16 119.251 16.764C120.065 16.346 120.978 16.137 121.99 16.137C124.124 16.137 125.928 16.984 127.402 18.678C128.898 20.372 129.646 22.396 129.646 24.75C129.646 27.104 128.898 29.128 127.402 30.822C125.928 32.516 124.124 33.363 121.99 33.363ZM118.129 27.687C118.833 28.457 119.746 28.842 120.868 28.842C121.99 28.842 122.892 28.457 123.574 27.687C124.278 26.917 124.63 25.938 124.63 24.75C124.63 23.562 124.278 22.583 123.574 21.813C122.892 21.043 121.99 20.658 120.868 20.658C119.746 20.658 118.833 21.043 118.129 21.813C117.447 22.583 117.106 23.562 117.106 24.75C117.106 25.938 117.447 26.917 118.129 27.687ZM130.163 33L140.195 9.57H144.947L154.979 33H149.501L147.422 28.05H137.72L135.641 33H130.163ZM142.571 16.467L139.601 23.496H145.508L142.571 16.467ZM157.421 33V9.57H162.668V33H157.421Z" fill="black"/>
</svg>
